# xmcd
#
# Track frame offsets:
#	150
#	16463
#	30566
#	46367
#	64535
#	82008
#	100539
#	118588
#	137242
#	154362
#
# Disc length: 2365 seconds
#
# Revision: 1
# Processed by: cddbd v1.5.2PL0 Copyright (c) Steve Scherf et al.
# Submitted via: audiograbber 1.83.01
#
DISCID=7d093b0a
DTITLE=Amy MacDonald - This is the life
DYEAR=2008
DGENRE=Pop
TTITLE0=Mr. Rock and Roll
TTITLE1=This is the life
TTITLE2=Poison prince
TTITLE3=Youth of today
TTITLE4=Run
TTITLE5=Let's start a band
TTITLE6=Barrowland ballroom
TTITLE7=L.A.
TTITLE8=A wish for something more
TTITLE9=Footballer's wife
EXTD=
EXTT0=
EXTT1=
EXTT2=
EXTT3=
EXTT4=
EXTT5=
EXTT6=
EXTT7=
EXTT8=
EXTT9=
PLAYORDER=
